<svg width="25" height="25" viewBox="0 0 25 25" fill="none" xmlns="http://www.w3.org/2000/svg">
<path d="M19.2712 13.1768V17.0309C19.2712 20.2809 16.2399 22.9163 12.5003 22.9163C8.76074 22.9163 5.72949 20.2809 5.72949 17.0309V13.1768C5.72949 16.4268 8.76074 18.7497 12.5003 18.7497C16.2399 18.7497 19.2712 16.4268 19.2712 13.1768Z" stroke="#12517F" stroke-width="2" stroke-linecap="round" stroke-linejoin="round"/>
<path d="M19.2712 7.96842C19.2712 8.91634 19.0107 9.79134 18.5524 10.5413C17.4378 12.3747 15.1462 13.5413 12.5003 13.5413C9.85449 13.5413 7.56283 12.3747 6.44824 10.5413C5.98991 9.79134 5.72949 8.91634 5.72949 7.96842C5.72949 6.34342 6.4899 4.87467 7.70865 3.81217C8.93782 2.73926 10.6253 2.08301 12.5003 2.08301C14.3753 2.08301 16.0628 2.73926 17.292 3.80176C18.5107 4.87467 19.2712 6.34342 19.2712 7.96842Z" stroke="#12517F" stroke-width="2" stroke-linecap="round" stroke-linejoin="round"/>
<path d="M19.2712 7.96842V13.1768C19.2712 16.4268 16.2399 18.7497 12.5003 18.7497C8.76074 18.7497 5.72949 16.4268 5.72949 13.1768V7.96842C5.72949 4.71842 8.76074 2.08301 12.5003 2.08301C14.3753 2.08301 16.0628 2.73926 17.292 3.80176C18.5107 4.87467 19.2712 6.34342 19.2712 7.96842Z" stroke="#12517F" stroke-width="2" stroke-linecap="round" stroke-linejoin="round"/>
</svg>
