<svg width="25" height="25" viewBox="0 0 25 25" fill="none" xmlns="http://www.w3.org/2000/svg">
<path d="M22.9167 8.87468V4.14551C22.9167 2.67676 22.25 2.08301 20.5938 2.08301H16.3854C14.7292 2.08301 14.0625 2.67676 14.0625 4.14551V8.86426C14.0625 10.3434 14.7292 10.9268 16.3854 10.9268H20.5938C22.25 10.9372 22.9167 10.3434 22.9167 8.87468Z" stroke="#12517F" stroke-width="2" stroke-linecap="round" stroke-linejoin="round"/>
<path d="M22.9167 20.5938V16.3854C22.9167 14.7292 22.25 14.0625 20.5938 14.0625H16.3854C14.7292 14.0625 14.0625 14.7292 14.0625 16.3854V20.5938C14.0625 22.25 14.7292 22.9167 16.3854 22.9167H20.5938C22.25 22.9167 22.9167 22.25 22.9167 20.5938Z" stroke="#12517F" stroke-width="2" stroke-linecap="round" stroke-linejoin="round"/>
<path d="M10.9372 8.87468V4.14551C10.9372 2.67676 10.2705 2.08301 8.61426 2.08301H4.40592C2.74967 2.08301 2.08301 2.67676 2.08301 4.14551V8.86426C2.08301 10.3434 2.74967 10.9268 4.40592 10.9268H8.61426C10.2705 10.9372 10.9372 10.3434 10.9372 8.87468Z" stroke="#12517F" stroke-width="2" stroke-linecap="round" stroke-linejoin="round"/>
<path d="M10.9372 20.5938V16.3854C10.9372 14.7292 10.2705 14.0625 8.61426 14.0625H4.40592C2.74967 14.0625 2.08301 14.7292 2.08301 16.3854V20.5938C2.08301 22.25 2.74967 22.9167 4.40592 22.9167H8.61426C10.2705 22.9167 10.9372 22.25 10.9372 20.5938Z" stroke="#12517F" stroke-width="2" stroke-linecap="round" stroke-linejoin="round"/>
</svg>
