<svg width="30" height="30" viewBox="0 0 30 30" fill="none" xmlns="http://www.w3.org/2000/svg">
<path d="M15 27.5C21.9036 27.5 27.5 21.9036 27.5 15C27.5 8.09644 21.9036 2.5 15 2.5C8.09644 2.5 2.5 8.09644 2.5 15C2.49999 27.5 2.50001 27.5 15 27.5Z" stroke="#12517F" stroke-width="2" stroke-linecap="round" stroke-linejoin="round"/>
<path d="M11.3623 11.2497C11.6562 10.4143 12.2362 9.70987 12.9997 9.26115C13.7633 8.81243 14.6609 8.64841 15.5338 8.79813C16.4066 8.94784 17.1983 9.40164 17.7687 10.0791C18.339 10.7567 18.6511 11.6141 18.6498 12.4997C18.6498 14.9997 14.8998 16.2497 14.8998 16.2497" stroke="#12517F" stroke-width="2" stroke-linecap="round" stroke-linejoin="round"/>
<path d="M15 21.25H15.0118" stroke="#12517F" stroke-width="2" stroke-linecap="round" stroke-linejoin="round"/>
</svg>
