<svg width="25" height="25" viewBox="0 0 25 25" fill="none" xmlns="http://www.w3.org/2000/svg">
<path d="M8.85384 19.7913H8.33301C4.16634 19.7913 2.08301 18.7497 2.08301 13.5413V8.33301C2.08301 4.16634 4.16634 2.08301 8.33301 2.08301H16.6663C20.833 2.08301 22.9163 4.16634 22.9163 8.33301V13.5413C22.9163 17.708 20.833 19.7913 16.6663 19.7913H16.1455C15.8226 19.7913 15.5101 19.9476 15.3122 20.208L13.7497 22.2913C13.0622 23.208 11.9372 23.208 11.2497 22.2913L9.68718 20.208C9.52051 19.9788 9.13509 19.7913 8.85384 19.7913Z" stroke="white" stroke-width="2" stroke-miterlimit="10" stroke-linecap="round" stroke-linejoin="round"/>
<path d="M7.29199 8.33301H17.7087" stroke="white" stroke-width="2" stroke-linecap="round" stroke-linejoin="round"/>
<path d="M7.29199 13.542H13.542" stroke="white" stroke-width="2" stroke-linecap="round" stroke-linejoin="round"/>
</svg>
